<svg xmlns="http://www.w3.org/2000/svg" width="1200" height="200" viewBox="0 0 317.5 52.917"><title>Proxmox logo full lockup</title><g style="display:inline"><path d="m-248.825 324.532 8.22 9.034a4.93 4.93 0 0 1-3.553 1.506 4.93 4.93 0 0 1-3.674-1.627l-4.547-4.998-3.553-3.915 3.553-3.885 4.547-5a4.93 4.93 0 0 1 3.674-1.625c1.386 0 2.65.572 3.554 1.475zm-16.034 0-8.221 9.034a4.93 4.93 0 0 0 3.554 1.506 4.93 4.93 0 0 0 3.673-1.627l4.548-4.998 3.553-3.915-3.553-3.885-4.548-5a4.93 4.93 0 0 0-3.673-1.626c-1.386 0-2.65.573-3.554 1.476z" style="fill:#e57000;fill-opacity:1;fill-rule:nonzero;stroke:none;stroke-width:.236446" transform="translate(437.117 -477.294)scale(1.55225)"/><path d="m-253.603 329.011-3.243-3.573-3.244 3.573-7.503 8.246a4.6 4.6 0 0 0 3.243 1.347c1.347 0 2.474-.55 3.326-1.484l4.178-4.563 4.15 4.563a4.5 4.5 0 0 0 3.353 1.484 4.6 4.6 0 0 0 3.244-1.347zm0-8.959-3.243 3.573-3.244-3.573-7.504-8.246a4.6 4.6 0 0 1 3.244-1.347c1.346 0 2.474.55 3.325 1.484l4.179 4.563 4.15-4.563a4.5 4.5 0 0 1 3.353-1.484 4.6 4.6 0 0 1 3.244 1.347z" style="fill:#000;fill-opacity:1;fill-rule:nonzero;stroke:none;stroke-width:.215816" transform="translate(437.117 -477.294)scale(1.55225)"/><g style="fill:#000;fill-opacity:1"><path d="M0 0c5.477 0 5.477 5.604 5.477 5.604v13.882C5.477 24.963 0 24.963 0 24.963h-39.101V0Zm27.892 24.963V2.802c0-12.355-10.062-22.288-22.415-22.288h-44.578c0-12.355-9.934-22.289-22.16-22.289v80.748c0 4.585 3.821 8.405 8.279 8.405H5.477c12.353 0 22.415-10.062 22.415-22.415" style="fill:#000;fill-opacity:1;fill-rule:nonzero;stroke:none" transform="matrix(.31442 0 0 -.31442 89.86 27.347)"/></g><g style="fill:#000;fill-opacity:1"><path d="M0 0c5.604 0 5.604 5.476 5.604 5.476v8.406C5.604 19.358 0 19.358 0 19.358h-38.845V0Zm9.934-19.233 17.959-25.599c-3.057-1.656-6.624-2.548-10.317-2.548-7.642 0-14.137 3.694-18.213 9.553L-13.5-19.486h-25.345v-5.605c0-12.354-10.062-22.289-22.289-22.289v80.748c0 4.585 3.693 8.405 8.279 8.405H5.604c12.354 0 22.289-10.061 22.289-22.415V2.674c0-10.825-7.77-19.869-17.959-21.907" style="fill:#000;fill-opacity:1;fill-rule:nonzero;stroke:none" transform="matrix(.31442 0 0 -.31442 121.858 25.585)"/></g><g style="fill:#000;fill-opacity:1"><path d="M0 0c0 5.477-5.604 5.477-5.604 5.477h-33.242C-44.449 5.477-44.449 0-44.449 0v-33.368c0-5.605 5.603-5.605 5.603-5.605h33.242C0-38.973 0-33.368 0-33.368Zm22.288 5.477v-44.45A22.233 22.233 0 0 0 0-61.262h-44.449a22.23 22.23 0 0 0-22.289 22.289v44.45c0 12.353 9.934 22.415 22.289 22.415H0c12.353 0 22.288-10.062 22.288-22.415" style="fill:#000;fill-opacity:1;fill-rule:nonzero;stroke:none" transform="matrix(.31442 0 0 -.31442 155.617 21.22)"/></g><g style="fill:#000;fill-opacity:1"><path d="m0 0 34.769-38.208a20.87 20.87 0 0 0-15.03-6.369c-6.24 0-11.716 2.675-15.537 6.878l-19.231 21.141-19.233-21.141c-3.82-4.203-9.425-6.878-15.538-6.878a20.87 20.87 0 0 0-15.028 6.369L-30.058 0l-34.77 38.209c3.821 3.821 9.171 6.241 15.028 6.241 6.241 0 11.464-2.548 15.411-6.878l19.36-21.142L4.202 37.572c3.821 4.202 9.297 6.878 15.537 6.878 5.86 0 11.209-2.42 15.03-6.241z" style="fill:#e57000;fill-opacity:1;fill-rule:nonzero;stroke:none" transform="matrix(.31442 0 0 -.31442 187.014 26.466)"/></g><g style="fill:#000;fill-opacity:1"><path d="M0 0v-80.748c-12.226 0-22.288 9.935-22.288 22.289v42.666c0 1.147-.765 1.91-1.784 1.91-.765 0-1.401-.509-1.782-1.019l-24.71-54.637c-1.019-1.911-2.928-3.185-5.095-3.185-2.164 0-4.201 1.401-5.093 3.312l-24.708 54.51c-.256.51-1.019 1.019-1.657 1.019-1.147 0-1.911-.763-1.911-1.91v-42.666c0-12.354-10.061-22.289-22.287-22.289V0c0 4.585 3.692 8.405 8.406 8.405h13.881c9.043 0 16.941-5.475 20.379-13.372v.254l12.99-28.783 13.118 28.783-.126-.254C-39.102 2.93-31.331 8.405-22.288 8.405h14.009C-3.693 8.405 0 4.585 0 0" style="fill:#000;fill-opacity:1;fill-rule:nonzero;stroke:none" transform="matrix(.31442 0 0 -.31442 236.952 15.093)"/></g><g style="fill:#000;fill-opacity:1"><path d="M0 0c0 5.477-5.604 5.477-5.604 5.477h-33.241C-44.448 5.477-44.448 0-44.448 0v-33.368c0-5.605 5.603-5.605 5.603-5.605h33.241C0-38.973 0-33.368 0-33.368Zm22.289 5.477v-44.45A22.233 22.233 0 0 0 0-61.262h-44.448a22.23 22.23 0 0 0-22.288 22.289v44.45c0 12.353 9.933 22.415 22.288 22.415H0c12.353 0 22.289-10.062 22.289-22.415" style="fill:#000;fill-opacity:1;fill-rule:nonzero;stroke:none" transform="matrix(.31442 0 0 -.31442 261.942 21.22)"/></g><g style="fill:#000;fill-opacity:1"><path d="m0 0 34.769-38.208a20.87 20.87 0 0 0-15.03-6.369c-6.24 0-11.716 2.675-15.537 6.878l-19.231 21.141-19.233-21.141c-3.82-4.203-9.425-6.878-15.537-6.878a20.88 20.88 0 0 0-15.029 6.369L-30.06 0l-34.768 38.209c3.821 3.821 9.171 6.241 15.029 6.241 6.24 0 11.463-2.548 15.412-6.878l19.358-21.142L4.202 37.572c3.821 4.202 9.297 6.878 15.537 6.878 5.86 0 11.21-2.42 15.03-6.241z" style="fill:#e57000;fill-opacity:1;fill-rule:nonzero;stroke:none" transform="matrix(.31442 0 0 -.31442 293.339 26.466)"/></g></g></svg>